:FULLY-SPECIFIED
:FORCE-ALL-JOINTS-BE-3DOF
:DEGREES
510
root -3.69278 14.6381 -40.5689 329.936 -16.9799 353.037
lfemur -3.2182 1.42059 -9.87235
ltibia 58.6397 0 0
lfoot -21.4319 29.0916 0
ltoes -25.4979 0 0
rfemur -51.9107 -17.6441 10.6034
rtibia 54.5709 0 0
rfoot -6.73687 0.488981 0
rtoes 11.3518 0 0
lowerback 17.5342 0.686105 -8.9893
upperback 0.818636 -0.670033 2.45261
thorax -8.74944 0.0766935 7.96604
lowerneck 1.31908 -12.7033 -14.4986
upperneck 5.4355 -17.7345 13.2048
head 3.89024 -8.90912 5.4391
lclavicle 1.78042e-14 -8.10754e-15 0
lhumerus -59.6178 -23.7699 97.8917
lradius 101.074 0 0
lwrist 63.7407 0 0
lhand -40.0149 37.7631 0
lfingers 7.12502 0 0
lthumb -12.9467 66.5977 0
rclavicle 1.78042e-14 -8.10754e-15 0
rhumerus 15.5951 8.7404 -47.8554
rradius 72.3411 0 0
rwrist -20.3436 0 0
rhand -10.5528 -12.5449 0
rfingers 7.12502 0 0
rthumb 15.1999 -39.1252 0
511
root -3.83311 14.6289 -40.6536 330.406 -19.776 354.241
lfemur -2.82088 1.76198 -9.62462
ltibia 58.3493 0 0
lfoot -21.3292 28.8688 0
ltoes -25.5947 0 0
rfemur -51.9685 -18.023 10.4358
rtibia 55.2041 0 0
rfoot -6.61151 1.11282 0
rtoes 11.3188 0 0
lowerback 17.5467 0.783788 -9.00946
upperback 0.81613 -0.557394 2.35476
thorax -8.78578 0.130684 7.84196
lowerneck 1.16416 -12.6126 -14.434
upperneck 5.55562 -17.5953 13.0487
head 3.91458 -8.83615 5.38347
lclavicle 1.72737e-14 -7.79064e-15 0
lhumerus -60.3247 -23.2097 97.9488
lradius 101.308 0 0
lwrist 64.6843 0 0
lhand -40.8733 37.808 0
lfingers 7.12502 0 0
lthumb -13.7742 66.6351 0
rclavicle 1.72737e-14 -7.79064e-15 0
rhumerus 15.1617 8.40532 -48.3777
rradius 70.9944 0 0
rwrist -19.7763 0 0
rhand -11.6646 -12.4131 0
rfingers 7.12502 0 0
rthumb 14.14 -39.1689 0
512
root -3.97206 14.6198 -40.7374 330.862 -22.5432 355.428
lfemur -2.42645 2.1005 -9.37999
ltibia 58.0594 0 0
lfoot -21.2281 28.6486 0
ltoes -25.6884 0 0
rfemur -52.0272 -18.3966 10.2693
rtibia 55.8318 0 0
rfoot -6.48727 1.73015 0
rtoes 11.2838 0 0
lowerback 17.5581 0.88058 -9.02876
upperback 0.813338 -0.445582 2.25782
thorax -8.82162 0.184261 7.71862
lowerneck 1.01079 -12.5222 -14.3695
upperneck 5.67335 -17.4567 12.8931
head 3.93813 -8.76346 5.32809
lclavicle 1.67474e-14 -7.47555e-15 0
lhumerus -61.0243 -22.6569 98.0074
lradius 101.539 0 0
lwrist 65.6158 0 0
lhand -41.711 37.8563 0
lfingers 7.12502 0 0
lthumb -14.5816 66.6757 0
rclavicle 1.67474e-14 -7.47555e-15 0
rhumerus 14.7355 8.07513 -48.8937
rradius 69.6561 0 0
rwrist -19.2083 0 0
rhand -12.7648 -12.2861 0
rfingers 7.12502 0 0
rthumb 13.0912 -39.2158 0
513
root -4.1095 14.6108 -40.8201 331.307 -25.2783 356.598
lfemur -2.03547 2.43572 -9.13876
ltibia 57.7706 0 0
lfoot -21.1286 28.4311 0
ltoes -25.7789 0 0
rfemur -52.0867 -18.7645 10.1041
rtibia 56.4534 0 0
rfoot -6.36458 2.34004 0
rtoes 11.2466 0 0
lowerback 17.5684 0.976347 -9.04713
upperback 0.810263 -0.334743 2.16191
thorax -8.85687 0.237351 7.59615
lowerneck 0.85924 -12.4323 -14.305
upperneck 5.78847 -17.3188 12.7384
head 3.96083 -8.69118 5.27307
lclavicle 1.62261e-14 -7.16265e-15 0
lhumerus -61.7157 -22.1123 98.0674
lradius 101.767 0 0
lwrist 66.5339 0 0
lhand -42.5261 37.9083 0
lfingers 7.12502 0 0
lthumb -15.3675 66.7196 0
rclavicle 1.62261e-14 -7.16265e-15 0
rhumerus 14.3173 7.75031 -49.4027
rradius 68.3282 0 0
rwrist -18.6402 0 0
rhand -13.852 -12.1639 0
rfingers 7.12502 0 0
rthumb 12.0549 -39.2659 0
514
root -4.24529 14.6019 -40.9017 331.74 -27.9784 357.75
lfemur -1.64849 2.76719 -8.90126
ltibia 57.4831 0 0
lfoot -21.031 28.2167 0
ltoes -25.866 0 0
rfemur -52.147 -19.1261 9.94057
rtibia 57.0682 0 0
rfoot -6.24384 2.94155 0
rtoes 11.2072 0 0
lowerback 17.5776 1.07095 -9.06451
upperback 0.806912 -0.225022 2.0672
thorax -8.89148 0.289882 7.47471
lowerneck 0.709794 -12.343 -14.2408
upperneck 5.90072 -17.1819 12.5847
head 3.98261 -8.61943 5.21852
lclavicle 1.57106e-14 -6.85231e-15 0
lhumerus -62.398 -21.5767 98.1285
lradius 101.991 0 0
lwrist 67.4371 0 0
lhand -43.3172 37.9639 0
lfingers 7.12502 0 0
lthumb -16.1301 66.7669 0
rclavicle 1.57106e-14 -6.85231e-15 0
rhumerus 13.9074 7.43139 -49.9036
rradius 67.0122 0 0
rwrist -18.0729 0 0
rhand -14.9244 -12.0467 0
rfingers 7.12502 0 0
rthumb 11.0326 -39.319 0
515
root -4.3793 14.593 -40.982 332.161 -30.6401 358.885
lfemur -1.26605 3.09449 -8.6678
ltibia 57.1974 0 0
lfoot -20.9354 28.0059 0
ltoes -25.9496 0 0
rfemur -52.2082 -19.4811 9.77901
rtibia 57.6756 0 0
rfoot -6.12544 3.53374 0
rtoes 11.1654 0 0
lowerback 17.5856 1.16426 -9.08082
upperback 0.803289 -0.116565 1.9738
thorax -8.92538 0.341781 7.35446
lowerneck 0.562721 -12.2544 -14.177
upperneck 6.00988 -17.0461 12.4323
head 4.00343 -8.54832 5.16452
lclavicle 1.52017e-14 -6.5449e-15 0
lhumerus -63.0702 -21.051 98.1907
lradius 102.21 0 0
lwrist 68.3243 0 0
lhand -44.0824 38.0234 0
lfingers 7.12502 0 0
lthumb -16.8679 66.8177 0
rclavicle 1.52017e-14 -6.5449e-15 0
rhumerus 13.5064 7.11886 -50.3954
rradius 65.7102 0 0
rwrist -17.5068 0 0
rhand -15.9806 -11.9349 0
rfingers 7.12502 0 0
rthumb 10.0258 -39.3751 0
516
root -4.51138 14.5843 -41.0611 332.572 -33.2605 360.002
lfemur -0.888719 3.41719 -8.4387
ltibia 56.9139 0 0
lfoot -20.8418 27.7988 0
ltoes -26.0295 0 0
rfemur -52.2704 -19.8291 9.61971
rtibia 58.2749 0 0
rfoot -6.00981 4.11569 0
rtoes 11.1211 0 0
lowerback 17.5925 1.25614 -9.09599
upperback 0.799401 -0.00951942 1.88188
thorax -8.95849 0.392976 7.23553
lowerneck 0.418297 -12.1669 -14.1137
upperneck 6.1157 -16.9118 12.2816
head 4.02323 -8.47799 5.11118
lclavicle 1.47003e-14 -6.2408e-15 0
lhumerus -63.7315 -20.5358 98.2536
lradius 102.425 0 0
lwrist 69.1939 0 0
lhand -44.8203 38.0868 0
lfingers 7.12502 0 0
lthumb -17.5793 66.8721 0
rclavicle 1.47003e-14 -6.2408e-15 0
rhumerus 13.115 6.81325 -50.8773
rradius 64.4239 0 0
rwrist -16.9427 0 0
rhand -17.019 -11.8285 0
rfingers 7.12502 0 0
rthumb 9.03607 -39.4341 0
517
root -4.6414 14.5756 -41.1387 332.973 -35.8364 361.101
lfemur -0.517038 3.73485 -8.21428
ltibia 56.633 0 0
lfoot -20.7503 27.5959 0
ltoes -26.1056 0 0
rfemur -52.3336 -20.1695 9.46298
rtibia 58.8655 0 0
rfoot -5.89734 4.68645 0
rtoes 11.0741 0 0
lowerback 17.598 1.34645 -9.10996
upperback 0.795253 0.0959703 1.79155
thorax -8.99076 0.443394 7.11809
lowerneck 0.276796 -12.0804 -14.051
upperneck 6.21794 -16.7791 12.1327
head 4.04193 -8.40855 5.05859
lclavicle 1.4207e-14 -5.94039e-15 0
lhumerus -64.3809 -20.0321 98.3172
lradius 102.635 0 0
lwrist 70.0448 0 0
lhand -45.529 38.1543 0
lfingers 7.12502 0 0
lthumb -18.2627 66.9302 0
rclavicle 1.4207e-14 -5.94039e-15 0
rhumerus 12.7336 6.51505 -51.3483
rradius 63.1551 0 0
rwrist -16.3814 0 0
rhand -18.038 -11.7277 0
rfingers 7.12502 0 0
rthumb 8.06476 -39.496 0
518
root -4.76921 14.5671 -41.215 333.365 -38.3647 362.182
lfemur -0.15156 4.04704 -7.99484
ltibia 56.355 0 0
lfoot -20.6611 27.3974 0
ltoes -26.1778 0 0
rfemur -52.3978 -20.502 9.30913
rtibia 59.4467 0 0
rfoot -5.78843 5.24508 0
rtoes 11.0244 0 0
lowerback 17.6023 1.43506 -9.12265
upperback 0.790849 0.199758 1.70297
thorax -9.02211 0.492963 7.00228
lowerneck 0.138492 -11.9952 -13.9891
upperneck 6.31637 -16.6484 11.9859
head 4.05949 -8.34013 5.00686
lclavicle 1.37228e-14 -5.64404e-15 0
lhumerus -65.0174 -19.5405 98.3813
lradius 102.84 0 0
lwrist 70.8754 0 0
lhand -46.2071 38.226 0
lfingers 7.12502 0 0
lthumb -18.9165 66.992 0
rclavicle 1.37228e-14 -5.64404e-15 0
rhumerus 12.3628 6.22478 -51.8075
rradius 61.9056 0 0
rwrist -15.8234 0 0
rhand -19.0361 -11.6327 0
rfingers 7.12502 0 0
rthumb 7.11342 -39.5606 0
